<?xml version="1.0" encoding="utf-8"?>
<!-- Generator: Adobe Illustrator 16.0.0, SVG Export Plug-In . SVG Version: 6.00 Build 0)  -->
<!DOCTYPE svg PUBLIC "-//W3C//DTD SVG 1.1//EN" "http://www.w3.org/Graphics/SVG/1.1/DTD/svg11.dtd">
<svg version="1.1" id="Layer_1" xmlns="http://www.w3.org/2000/svg" xmlns:xlink="http://www.w3.org/1999/xlink" x="0px" y="0px"
	 width="250px" height="250px" viewBox="0 0 250 250" enable-background="new 0 0 250 250" xml:space="preserve">
<symbol  id="App" viewBox="-25 -25 50 50">
	<polygon fill="#FFFFFF" points="25,-25 -25,-25 -25,25 25,25 	"/>
	<path fill="#EFF3F1" d="M11.416-17.56c0-0.999-0.642-1.817-1.427-1.817H-9.989c-0.784,0-1.427,0.818-1.427,1.817v34.49
		c0,1,0.642,1.818,1.427,1.818H9.988c0.784,0,1.427-0.818,1.427-1.818L11.416-17.56L11.416-17.56z"/>
	<g>
		<path fill="none" d="M21.667-19.072c0-1.833-1.5-3.333-3.333-3.333h-36.667c-1.833,0-3.333,1.5-3.333,3.333v36.666
			c0,1.833,1.5,3.333,3.333,3.333h36.667c1.833,0,3.333-1.5,3.333-3.333V-19.072z"/>
	</g>
	<g>
		<path fill="#59656A" d="M7.79,20.381H-7.79c-2.624,0-4.762-2.135-4.762-4.764v-32.14c0-2.627,2.138-4.764,4.762-4.764H7.79
			c2.154,0,3.978,1.441,4.562,3.405h0.001v0.005c0.128,0.43,0.201,0.883,0.201,1.354v32.138
			C12.553,18.246,10.413,20.381,7.79,20.381z M11.307-11.135h-22.616v26.752c0,1.942,1.578,3.521,3.521,3.521H7.79
			c1.942,0,3.518-1.578,3.518-3.52L11.307-11.135L11.307-11.135z M-0.111-18.738c-1.443,0-2.618,1.174-2.618,2.611
			c0,1.442,1.175,2.622,2.618,2.622c1.442,0,2.613-1.18,2.613-2.622C2.5-17.568,1.33-18.738-0.111-18.738z"/>
		<g>
			<path fill="none" stroke="#59656A" stroke-width="1.1761" stroke-miterlimit="10" d="M11.307-15.79
				c0-2.008-1.644-3.654-3.656-3.654H-7.654c-2.01,0-3.654,1.646-3.654,3.654v31.274c0,2.008,1.644,3.654,3.654,3.654H7.651
				c2.011,0,3.656-1.646,3.656-3.654V-15.79z"/>
		</g>
	</g>
</symbol>
<symbol  id="Node_Hexagon_White" viewBox="-25 -25 50 50">
	<polygon fill="#FFFFFF" points="25,-25 -25,-25 -25,25 25,25 	"/>
	<g>
		<g>
			<polygon fill="#8CC84B" points="18.62,-10.748 0,-21.498 -18.62,-10.748 -18.62,10.752 0,21.502 18.62,10.752 			"/>
		</g>
		<g>
			<path fill="#FFFFFF" d="M-0.005-16.045c-0.43,0-0.857,0.111-1.232,0.33l-3.928,2.322c-0.586,0.321-0.3,0.438-0.104,0.512
				c0.78,0.27,0.938,0.334,1.774,0.809c0.086,0.049,0.201,0.029,0.291-0.021l3.019-1.791c0.108-0.062,0.264-0.062,0.362,0
				L11.94-7.095c0.108,0.061,0.181,0.188,0.181,0.313V6.793c0,0.133-0.069,0.256-0.183,0.324L0.179,13.898
				c-0.108,0.061-0.254,0.061-0.362,0l-11.753-6.783c-0.114-0.066-0.188-0.193-0.188-0.322V-6.779c0-0.131,0.071-0.254,0.187-0.312
				l3.222-1.861c1.748-0.875,2.818,0.154,2.818,1.189V5.635c0,0.189,0.152,0.338,0.342,0.338h1.491c0.187,0,0.341-0.146,0.341-0.338
				V-7.765c0-2.334-1.271-3.677-3.482-3.677c-0.68,0-1.215,0-2.709,0.736l-3.084,1.775c-0.762,0.438-1.231,1.264-1.231,2.145V6.793
				c0,0.881,0.472,1.705,1.231,2.143l11.762,6.802c0.744,0.42,1.732,0.42,2.472,0l11.761-6.802c0.765-0.438,1.235-1.262,1.235-2.143
				V-6.779c0-0.883-0.477-1.703-1.235-2.146l-11.765-6.79C0.857-15.934,0.431-16.045-0.005-16.045z"/>
			<path fill="#FFFFFF" d="M3.628-6.695c-5.146,0-6.225,2.363-6.225,4.349c0,0.188,0.15,0.34,0.34,0.34h1.521
				c0.17,0,0.312-0.123,0.338-0.289c0.229-1.549,0.912-2.33,4.025-2.33c2.479,0,3.532,0.561,3.532,1.875
				c0,0.758-0.3,1.32-4.149,1.697C-0.206-0.738-2.198-0.027-2.198,2.55c0,2.373,2,3.787,5.354,3.787c3.77,0,5.632-1.307,5.867-4.113
				C9.034,2.125,9,2.031,8.936,1.959C8.87,1.893,8.779,1.852,8.686,1.852H7.159c-0.158,0-0.298,0.111-0.33,0.271
				C6.464,3.746,5.572,4.266,3.156,4.266c-2.705,0-3.021-0.938-3.021-1.646c0-0.855,0.371-1.105,4.022-1.588
				C7.773,0.553,9.49-0.125,9.49-2.664C9.491-5.227,7.354-6.695,3.628-6.695z"/>
		</g>
	</g>
</symbol>
<symbol  id="Server" viewBox="-25 -25 50 50">
	<polygon fill="#FFFFFF" points="25,-25 -25,-25 -25,25 25,25 	"/>
	<g>
		<polygon fill="#59656A" points="3.186,2.471 3.186,9.602 -12.264,2.471 -12.264,16.732 -19.395,16.732 -19.395,-17.732 
			18.635,-17.732 18.635,9.602 		"/>
		<polygon fill="#EFF3F1" points="11.956,-7.631 -11.813,-7.631 -11.813,-5.254 11.956,-5.254 		"/>
	</g>
	<g>
		<path fill="none" d="M21.667-19.072c0-1.833-1.5-3.333-3.333-3.333h-36.667c-1.833,0-3.333,1.5-3.333,3.333v36.666
			c0,1.833,1.5,3.333,3.333,3.333h36.667c1.833,0,3.333-1.5,3.333-3.333V-19.072z"/>
	</g>
</symbol>
<use xlink:href="#Node_Hexagon_White"  width="50" height="50" x="-25" y="-25" transform="matrix(1 0 0 -1 125 25)" overflow="visible"/>
<g>
	
		<use xlink:href="#Server"  width="50" height="50" id="XMLID_1_" x="-25" y="-25" transform="matrix(1 0 0 -1 25 25)" overflow="visible"/>
</g>
<g id="Server_2">
</g>
<use xlink:href="#App"  width="50" height="50" id="XMLID_2_" x="-25" y="-25" transform="matrix(1 0 0 -1 75 25)" overflow="visible"/>
<g>
	<path fill="#ACB2B4" d="M74.187,13.001c0,0.388-0.317,0.706-0.706,0.706h-1.943c-0.388,0-0.706-0.318-0.706-0.706v-1.943
		c0-0.389,0.318-0.706,0.706-0.706h1.943c0.389,0,0.706,0.317,0.706,0.706V13.001z"/>
</g>
<g>
	<path fill="#ACB2B4" d="M69.418,13.001c0,0.388-0.318,0.706-0.706,0.706h-1.943c-0.388,0-0.706-0.318-0.706-0.706v-1.943
		c0-0.389,0.318-0.706,0.706-0.706h1.943c0.388,0,0.706,0.317,0.706,0.706V13.001z"/>
</g>
<g>
	<path fill="#ACB2B4" d="M83.724,13.001c0,0.388-0.318,0.706-0.707,0.706h-1.943c-0.388,0-0.707-0.318-0.707-0.706v-1.943
		c0-0.389,0.318-0.706,0.707-0.706h1.943c0.388,0,0.707,0.317,0.707,0.706V13.001z"/>
</g>
<g>
	<path fill="#ACB2B4" d="M78.955,13.001c0,0.388-0.318,0.706-0.706,0.706h-1.943c-0.388,0-0.706-0.318-0.706-0.706v-1.943
		c0-0.389,0.318-0.706,0.706-0.706h1.943c0.388,0,0.706,0.317,0.706,0.706V13.001z"/>
</g>
<g>
	<path fill="#ACB2B4" d="M74.187,17.957c0,0.388-0.317,0.706-0.706,0.706h-1.943c-0.388,0-0.706-0.318-0.706-0.706v-1.943
		c0-0.389,0.318-0.706,0.706-0.706h1.943c0.389,0,0.706,0.317,0.706,0.706V17.957z"/>
</g>
<g>
	<path fill="#ACB2B4" d="M69.418,17.957c0,0.388-0.318,0.706-0.706,0.706h-1.943c-0.388,0-0.706-0.318-0.706-0.706v-1.943
		c0-0.389,0.318-0.706,0.706-0.706h1.943c0.388,0,0.706,0.317,0.706,0.706V17.957z"/>
</g>
<g>
	<path fill="#ACB2B4" d="M83.724,17.957c0,0.388-0.318,0.706-0.707,0.706h-1.943c-0.388,0-0.707-0.318-0.707-0.706v-1.943
		c0-0.389,0.318-0.706,0.707-0.706h1.943c0.388,0,0.707,0.317,0.707,0.706V17.957z"/>
</g>
<g>
	<path fill="#ACB2B4" d="M78.955,17.957c0,0.388-0.318,0.706-0.706,0.706h-1.943c-0.388,0-0.706-0.318-0.706-0.706v-1.943
		c0-0.389,0.318-0.706,0.706-0.706h1.943c0.388,0,0.706,0.317,0.706,0.706V17.957z"/>
</g>
<g>
	<path fill="#ACB2B4" d="M74.187,22.957c0,0.388-0.317,0.706-0.706,0.706h-1.943c-0.388,0-0.706-0.318-0.706-0.706v-1.943
		c0-0.389,0.318-0.706,0.706-0.706h1.943c0.389,0,0.706,0.317,0.706,0.706V22.957z"/>
</g>
<g>
	<path fill="#ACB2B4" d="M69.418,22.957c0,0.388-0.318,0.706-0.706,0.706h-1.943c-0.388,0-0.706-0.318-0.706-0.706v-1.943
		c0-0.389,0.318-0.706,0.706-0.706h1.943c0.388,0,0.706,0.317,0.706,0.706V22.957z"/>
</g>
<g>
	<path fill="#ACB2B4" d="M83.724,22.957c0,0.388-0.318,0.706-0.707,0.706h-1.943c-0.388,0-0.707-0.318-0.707-0.706v-1.943
		c0-0.389,0.318-0.706,0.707-0.706h1.943c0.388,0,0.707,0.317,0.707,0.706V22.957z"/>
</g>
<g>
	<path fill="#ACB2B4" d="M78.955,22.957c0,0.388-0.318,0.706-0.706,0.706h-1.943c-0.388,0-0.706-0.318-0.706-0.706v-1.943
		c0-0.389,0.318-0.706,0.706-0.706h1.943c0.388,0,0.706,0.317,0.706,0.706V22.957z"/>
</g>
</svg>
