<?xml version="1.0" encoding="utf-8"?>
<!-- Generator: Adobe Illustrator 22.0.1, SVG Export Plug-In . SVG Version: 6.00 Build 0)  -->
<svg version="1.1" id="Capa_1" xmlns="http://www.w3.org/2000/svg" xmlns:xlink="http://www.w3.org/1999/xlink" x="0px" y="0px"
	 viewBox="0 0 12 12" style="enable-background:new 0 0 12 12;" xml:space="preserve">
<style type="text/css">
	.st0{fill:#F0F0F0;}
</style>
<path class="st0" d="M7.8,7.8c0.3-0.3,0.8-0.3,1.1,0l0,0l2.9,2.9c0.3,0.3,0.3,0.8,0,1.1s-0.8,0.3-1.1,0L7.8,8.9
	C7.5,8.6,7.5,8.1,7.8,7.8L7.8,7.8L7.8,7.8z"/>
<path class="st0" d="M4.9,9C7.2,9,9,7.2,9,4.9S7.2,0.8,4.9,0.8l0,0c-2.3,0-4.1,1.8-4.1,4.1S2.6,9,4.9,9z M9.8,4.9
	c0,2.7-2.2,4.9-4.9,4.9S0,7.6,0,4.9S2.2,0,4.9,0S9.8,2.2,9.8,4.9z"/>
</svg>
